<svg height="480pt" viewBox="0 0 480 480" width="480pt" xmlns="http://www.w3.org/2000/svg"><path d="m40 376h400v64h-400zm0 0" fill="#9bc9ff"/><path d="m456 136c-.015625-5.691406-3.066406-10.945312-8-13.785156v-98.214844c0-8.835938-7.164062-16-16-16s-16 7.164062-16 16v98.214844c-4.933594 2.839844-7.984375 8.09375-8 13.785156v208h48zm0 0" fill="#9bc9ff"/><g fill="#57a4ff"><path d="m464 337.472656v-201.472656c-.023438-6.796875-2.933594-13.269531-8-17.800781v-94.199219c0-13.253906-10.746094-24-24-24s-24 10.746094-24 24v94.199219c-5.066406 4.53125-7.976562 11.003906-8 17.800781v200h-376c-13.253906 0-24 10.746094-24 24v96c0 13.253906 10.746094 24 24 24h432c13.253906 0 24-10.746094 24-24v-96c-.042969-10.132812-6.445312-19.148438-16-22.527344zm-48-201.472656c.003906-2.839844 1.53125-5.460938 4-6.863281 2.472656-1.429688 3.996094-4.066407 4-6.921875v-98.214844c0-4.417969 3.582031-8 8-8s8 3.582031 8 8v98.214844c.003906 2.855468 1.527344 5.492187 4 6.921875 2.46875 1.402343 3.996094 4.023437 4 6.863281v200h-32zm48 320c0 4.417969-3.582031 8-8 8h-432c-4.417969 0-8-3.582031-8-8v-96c0-4.417969 3.582031-8 8-8h432c4.417969 0 8 3.582031 8 8zm0 0"/><path d="m440 368h-400c-4.417969 0-8 3.582031-8 8v64c0 4.417969 3.582031 8 8 8h400c4.417969 0 8-3.582031 8-8v-64c0-4.417969-3.582031-8-8-8zm-8 64h-384v-48h384zm0 0"/><path d="m64 400h32v16h-32zm0 0"/><path d="m381.425781 217.777344 11.308594-11.3125c-84.40625-84.222656-221.0625-84.222656-305.46875 0l11.308594 11.3125c78.160156-77.976563 204.691406-77.976563 282.851562 0zm0 0"/><path d="m370.105469 229.089844c-71.902344-71.746094-188.308594-71.746094-260.210938 0l11.3125 11.308594c65.65625-65.503907 171.945313-65.503907 237.601563 0zm0 0"/><path d="m347.480469 251.710938c-59.398438-59.261719-155.5625-59.261719-214.960938 0l11.3125 11.3125c53.148438-53.023438 139.1875-53.023438 192.335938 0zm0 0"/><path d="m155.152344 274.34375 11.3125 11.3125c40.640625-40.542969 106.429687-40.542969 147.070312 0l11.3125-11.3125c-46.890625-46.789062-122.804687-46.789062-169.695312 0zm0 0"/></g></svg>